<svg width="20" height="20" viewBox="0 0 20 20" fill="none" xmlns="http://www.w3.org/2000/svg">
<path fill-rule="evenodd" clip-rule="evenodd" d="M13.75 5.4165C13.75 7.48757 12.0711 9.1665 10 9.1665C7.92893 9.1665 6.25 7.48757 6.25 5.4165C6.25 3.34544 7.92893 1.6665 10 1.6665C12.0711 1.6665 13.75 3.34544 13.75 5.4165ZM12.0833 5.4165C12.0833 6.5671 11.1506 7.49984 10 7.49984C8.84941 7.49984 7.91667 6.5671 7.91667 5.4165C7.91667 4.26591 8.84941 3.33317 10 3.33317C11.1506 3.33317 12.0833 4.26591 12.0833 5.4165Z" fill="#667085"/>
<path d="M13.0572 11.8857C12.6412 11.7436 12.195 11.6665 11.7308 11.6665H8.26923C6.00345 11.6665 4.16667 13.5033 4.16667 15.7691C4.16667 15.8045 4.19537 15.8332 4.23077 15.8332H10.8333C11.2936 15.8332 11.6667 16.2063 11.6667 16.6665C11.6667 17.1267 11.2936 17.4998 10.8333 17.4998H4.23077C3.27489 17.4998 2.5 16.7249 2.5 15.7691C2.5 12.5828 5.08297 9.99984 8.26923 9.99984H11.7308C12.5055 9.99984 13.2446 10.1525 13.9195 10.4295C14.3223 10.5948 14.4625 11.0748 14.2678 11.4641C14.0522 11.8955 13.5136 12.0415 13.0572 11.8857Z" fill="#667085"/>
<path d="M15.4167 12.4998C15.8769 12.4998 16.25 12.8729 16.25 13.3332V14.5832H17.5C17.9602 14.5832 18.3333 14.9563 18.3333 15.4165C18.3333 15.8767 17.9602 16.2498 17.5 16.2498H16.25V17.4998C16.25 17.9601 15.8769 18.3332 15.4167 18.3332C14.9564 18.3332 14.5833 17.9601 14.5833 17.4998V16.2498H13.3333C12.8731 16.2498 12.5 15.8767 12.5 15.4165C12.5 14.9563 12.8731 14.5832 13.3333 14.5832H14.5833V13.3332C14.5833 12.8729 14.9564 12.4998 15.4167 12.4998Z" fill="#667085"/>
</svg>
