<svg width="28" height="28" viewBox="0 0 28 28" fill="none" xmlns="http://www.w3.org/2000/svg">
<rect width="28" height="28" rx="14" fill="#DCF5E9"/>
<path d="M15.1673 8.32418V10.7337C15.1673 11.0604 15.1673 11.2237 15.2309 11.3485C15.2868 11.4582 15.3761 11.5475 15.4858 11.6034C15.6106 11.667 15.774 11.667 16.1007 11.667H18.5101M18.6673 12.8268V17.0337C18.6673 18.0138 18.6673 18.5038 18.4766 18.8781C18.3088 19.2074 18.0411 19.4751 17.7118 19.6429C17.3375 19.8337 16.8474 19.8337 15.8673 19.8337H12.134C11.1539 19.8337 10.6638 19.8337 10.2895 19.6429C9.96022 19.4751 9.6925 19.2074 9.52472 18.8781C9.33398 18.5038 9.33398 18.0138 9.33398 17.0337V10.967C9.33398 9.9869 9.33398 9.49685 9.52472 9.12251C9.6925 8.79323 9.96022 8.52551 10.2895 8.35773C10.6638 8.16699 11.1539 8.16699 12.134 8.16699H14.0075C14.4356 8.16699 14.6496 8.16699 14.851 8.21534C15.0295 8.25821 15.2002 8.32892 15.3568 8.42487C15.5334 8.5331 15.6848 8.68443 15.9874 8.98709L17.8472 10.8469C18.1499 11.1496 18.3012 11.3009 18.4094 11.4775C18.5054 11.6341 18.5761 11.8048 18.619 11.9833C18.6673 12.1847 18.6673 12.3988 18.6673 12.8268Z" stroke="#0D894F" stroke-width="1.5" stroke-linecap="round" stroke-linejoin="round"/>
</svg>
