<svg width="18" height="12" viewBox="0 0 18 12" fill="none" xmlns="http://www.w3.org/2000/svg">
<path fill-rule="evenodd" clip-rule="evenodd" d="M9.21847 0.166626C14.3268 0.166626 16.7441 3.5916 17.595 5.19278C17.866 5.70262 17.866 6.2973 17.595 6.80714C16.7441 8.40832 14.3268 11.8333 9.21847 11.8333C4.11014 11.8333 1.69286 8.40832 0.841895 6.80714C0.570931 6.2973 0.570931 5.70262 0.841896 5.19277C1.69286 3.59159 4.11014 0.166626 9.21847 0.166626ZM4.91542 3.0647C3.53187 3.98141 2.72398 5.20281 2.31363 5.97494C2.30904 5.98357 2.30716 5.98955 2.30633 5.99283C2.3055 5.99617 2.30534 5.99996 2.30534 5.99996C2.30534 5.99996 2.3055 6.00375 2.30633 6.00709C2.30716 6.01037 2.30904 6.01635 2.31363 6.02497C2.72398 6.7971 3.53187 8.01851 4.91542 8.93521C4.3442 8.09943 4.01014 7.08871 4.01014 5.99996C4.01014 4.91121 4.3442 3.90049 4.91542 3.0647ZM13.5215 8.9352C14.9051 8.0185 15.713 6.7971 16.1233 6.02497C16.1279 6.01635 16.1298 6.01037 16.1306 6.00709C16.1311 6.00492 16.1315 6.00187 16.1315 6.00187L16.1316 5.99996L16.1313 5.99629L16.1306 5.99283C16.1298 5.98955 16.1279 5.98357 16.1233 5.97494C15.713 5.20282 14.9051 3.98142 13.5215 3.06471C14.0927 3.9005 14.4268 4.91122 14.4268 5.99996C14.4268 7.0887 14.0927 8.09942 13.5215 8.9352ZM5.67681 5.99996C5.67681 4.04395 7.26246 2.45829 9.21847 2.45829C11.1745 2.45829 12.7601 4.04395 12.7601 5.99996C12.7601 7.95597 11.1745 9.54163 9.21847 9.54163C7.26246 9.54163 5.67681 7.95597 5.67681 5.99996Z" fill="#667085"/>
</svg>
