<svg width="41" height="40" viewBox="0 0 41 40" fill="none" xmlns="http://www.w3.org/2000/svg">
<path fill-rule="evenodd" clip-rule="evenodd" d="M7.16675 5.83301C7.16675 4.4523 8.28604 3.33301 9.66675 3.33301H26.1312C26.7943 3.33301 27.4301 3.5964 27.899 4.06524L33.1012 9.26744C33.57 9.73628 33.8334 10.3722 33.8334 11.0352V34.1663C33.8334 35.5471 32.7141 36.6663 31.3334 36.6663H9.66675C8.28604 36.6663 7.16675 35.5471 7.16675 34.1663V5.83301ZM32.1667 11.6663H26.3334C25.8732 11.6663 25.5001 11.2932 25.5001 10.833V4.99967H9.66675C9.20651 4.99967 8.83341 5.37277 8.83341 5.83301V34.1663C8.83341 34.6266 9.20651 34.9997 9.66675 34.9997H31.3334C31.7936 34.9997 32.1667 34.6266 32.1667 34.1663V11.6663Z" fill="#E0E2E7"/>
<path d="M7.16675 15.833H33.8334V25.833H7.16675V15.833Z" fill="#F21E1E"/>
<path d="M12.6252 24.1671V18.1064H15.1288C15.5826 18.1064 15.9742 18.1952 16.3036 18.3728C16.6351 18.5484 16.8906 18.794 17.0701 19.1096C17.2496 19.4233 17.3394 19.7883 17.3394 20.2046C17.3394 20.6228 17.2476 20.9888 17.0642 21.3025C16.8827 21.6142 16.6232 21.8559 16.2859 22.0275C15.9485 22.1991 15.548 22.2849 15.0844 22.2849H13.5397V21.1308H14.8122C15.0331 21.1308 15.2176 21.0924 15.3655 21.0154C15.5155 20.9385 15.6289 20.831 15.7059 20.6929C15.7828 20.5528 15.8213 20.39 15.8213 20.2046C15.8213 20.0172 15.7828 19.8554 15.7059 19.7193C15.6289 19.5812 15.5155 19.4746 15.3655 19.3997C15.2156 19.3247 15.0311 19.2872 14.8122 19.2872H14.0901V24.1671H12.6252Z" fill="white"/>
<path d="M20.3016 24.1671H18.0614V18.1064H20.2987C20.9162 18.1064 21.4478 18.2278 21.8937 18.4704C22.3415 18.7111 22.6868 19.0583 22.9295 19.5121C23.1721 19.9639 23.2934 20.5044 23.2934 21.1338C23.2934 21.7651 23.1721 22.3076 22.9295 22.7614C22.6888 23.2151 22.3445 23.5634 21.8967 23.806C21.4488 24.0467 20.9171 24.1671 20.3016 24.1671ZM19.5263 22.9182H20.2454C20.5847 22.9182 20.8718 22.861 21.1065 22.7466C21.3433 22.6302 21.5218 22.4418 21.6422 22.1814C21.7645 21.919 21.8256 21.5698 21.8256 21.1338C21.8256 20.6978 21.7645 20.3506 21.6422 20.0921C21.5199 19.8317 21.3393 19.6443 21.1006 19.5299C20.8639 19.4135 20.5719 19.3553 20.2247 19.3553H19.5263V22.9182Z" fill="white"/>
<path d="M24.1487 24.1671V18.1064H28.2858V19.2961H25.6135V20.539H28.0224V21.7316H25.6135V24.1671H24.1487Z" fill="white"/>
</svg>
