<svg width="20" height="20" viewBox="0 0 20 20" fill="none" xmlns="http://www.w3.org/2000/svg">
<path fill-rule="evenodd" clip-rule="evenodd" d="M17.3037 6.81991C18.28 5.8436 18.28 4.26069 17.3037 3.28438L16.7145 2.69512C15.7382 1.71881 14.1552 1.71881 13.1789 2.69512L3.68999 12.1841C3.34526 12.5288 3.10885 12.9668 3.00985 13.4442L2.34013 16.6735C2.21835 17.2607 2.73809 17.7805 3.32532 17.6587L6.55467 16.989C7.03204 16.89 7.47005 16.6536 7.81479 16.3089L17.3037 6.81991ZM16.1252 4.46289L15.536 3.87363C15.2105 3.5482 14.6829 3.5482 14.3575 3.87363L13.4735 4.75755L15.2413 6.52531L16.1252 5.6414C16.4507 5.31596 16.4507 4.78833 16.1252 4.46289ZM14.0628 7.70382L12.295 5.93606L4.86851 13.3626C4.75359 13.4775 4.67479 13.6235 4.64179 13.7826L4.22984 15.769L6.21624 15.3571C6.37536 15.3241 6.52137 15.2453 6.63628 15.1303L14.0628 7.70382Z" fill="#667085"/>
</svg>
