<svg width="20" height="20" viewBox="0 0 20 20" fill="none" xmlns="http://www.w3.org/2000/svg">
  <path d="M8.33268 8.12484C8.79292 8.12484 9.16602 8.49793 9.16602 8.95817V13.9582C9.16602 14.4184 8.79292 14.7915 8.33268 14.7915C7.87245 14.7915 7.49935 14.4184 7.49935 13.9582V8.95817C7.49935 8.49793 7.87245 8.12484 8.33268 8.12484Z" fill="#FF0000"/>
  <path d="M12.4993 8.95817C12.4993 8.49793 12.1263 8.12484 11.666 8.12484C11.2058 8.12484 10.8327 8.49793 10.8327 8.95817V13.9582C10.8327 14.4184 11.2058 14.7915 11.666 14.7915C12.1263 14.7915 12.4993 14.4184 12.4993 13.9582V8.95817Z" fill="#FF0000"/>
  <path fill-rule="evenodd" clip-rule="evenodd" d="M14.9993 4.99984V4.1665C14.9993 2.78579 13.8801 1.6665 12.4993 1.6665H7.49935C6.11864 1.6665 4.99935 2.78579 4.99935 4.1665V4.99984H3.74935C3.28911 4.99984 2.91602 5.37293 2.91602 5.83317C2.91602 6.29341 3.28911 6.6665 3.74935 6.6665H4.16602V15.8332C4.16602 17.2139 5.2853 18.3332 6.66602 18.3332H13.3327C14.7134 18.3332 15.8327 17.2139 15.8327 15.8332V6.6665H16.2493C16.7096 6.6665 17.0827 6.29341 17.0827 5.83317C17.0827 5.37293 16.7096 4.99984 16.2493 4.99984H14.9993ZM12.4993 3.33317H7.49935C7.03911 3.33317 6.66602 3.70627 6.66602 4.1665V4.99984H13.3327V4.1665C13.3327 3.70627 12.9596 3.33317 12.4993 3.33317ZM14.166 6.6665H5.83268V15.8332C5.83268 16.2934 6.20578 16.6665 6.66602 16.6665H13.3327C13.7929 16.6665 14.166 16.2934 14.166 15.8332V6.6665Z" fill="#FF0000"/>
</svg>
