<svg version="1.2" xmlns="http://www.w3.org/2000/svg" viewBox="0 0 1468 1511" width="1468" height="1511">
	<title>TOI_Primary_4Color_Stacked_RGB_2000x1420-svg</title>
	<style>
		.s0 { fill: #a66e3b } 
		.s1 { fill: #9ac9d9 } 
		.s2 { fill: #c3e0e8 } 
		.s3 { fill: #c6a78b } 
	</style>
	<g id="#a66e3bff">
		<path id="Layer" class="s0" d="m1359.1 624.4c11.2-16.1 26.5-33.4 47.8-33.4 14.9 0.2 25.6 12.4 31.7 24.8-8.6 55.7-36.7 107.2-75.3 147.9-44.4 42.9-99.5 72.8-156 96.9 26.3-4.4 50.1-17 73.3-29.6 30.7-17.4 60.4-36.7 87.5-59.4 20.8-16.7 33.6-40.7 46.9-63.2 9.3-15.3 16.1-32 22.9-48.5 1.1-3.2 2.2-6.5 3.4-9.6 1.6-5.4 3.4-10.7 5.1-16 6.9 2.3 13.5 5.3 19.5 9.3 1.3 7.5 2.2 15.2 1.9 22.9-8.7 37.6-25.2 72.7-39.9 108.2-8.3 19.2-22.9 34.8-39.7 47-37.9 30.8-78.2 58.9-122.5 79.7 23.4-3.2 44.4-15 64.5-26.9 26.9-16.9 53.5-35.2 75.4-58.5 10.9-11.6 19-25.6 30.6-36.6 2 22.8-10.1 43.3-22.3 61.6-18.6 25.8-44.2 45.6-69.9 64-78 64.9-179.5 92.8-278.5 105.3-50.5 7.1-102.2 5.6-152-5.6 15.2 13.8 34.4 21.4 53.7 27.2-2.2 47.7 3.1 95.1 3.1 142.8-0.8 21 3.8 41.8 3.4 62.8 2.3 25.2 4.3 50.6 10.5 75.2q1.8 5 3.7 10.2c9.5 25.2 21.8 50.3 41.9 68.8 24.9 27.2 59.7 42.7 94.6 52.8 26.5 8.6 54.6 1.7 81.6 6.5 5-0.3 5.5 4.7 7.3 8.1-30.4 15.6-64.6 21-98.1 24.9-60.6 6.4-123.5 2.2-180.5-20.5-39-15.5-75-40.7-99-75.5-27.8-44.4-38.4-97.2-40.4-148.9 0.6-24.7-4.2-49.1-3.4-73.8 0-44.7-0.1-89.3-0.6-134-5.2-39.9 0.4-80.4-5.4-120.2-0.4-18.2 2.9-36.4 7.1-54.1q1.6-4.9 3.3-9.9c11.7-30.8 36.5-55.8 67.5-67.1 35.3-12.4 71.9-21.9 105.2-39.4 38.9-21.2 75.3-46.8 111.6-72.3 10-6.1 20.3 3.3 26.9 10.3 3 28.9-5.8 59.6-26.6 80.4-16.2 16.3-32.8 32.5-45.1 52.1 5.8 4.9 11 12.3 19.3 12.5 19.2 0.7 38-5.1 56-10.9 45.6-16.2 89-37.5 132.7-58.2 23.4-10.9 40.1-31.3 60.8-46.2 15.3-11.5 32.4-22.9 40-41.3 1.4-5.8 3.1-11.6 4.8-17.3 1.1-3.4 2.2-6.7 3.3-10q3.2-7.7 6.4-15.3z"/>
	</g>
	<g id="#9ac9d9ff">
		<path id="Layer" class="s1" d="m31.6 634.5c9.5-9.8 20.4-22.5 35.7-18.8 20.4 5 36.6 21.5 45.7 39.9 4.3 14.7 10.2 28.9 14.5 43.7 17.6 22.9 43.3 37.4 64.2 57.1 19.2 18.2 44.2 27.9 67.7 39.3 38.1 17.4 76.2 35.7 116.7 47.2 13.9 4.1 28.5 5.6 43 5 3.9-4.9 7.9-9.8 11.9-14.6-14.3-20.3-31.6-38.4-49-56-15.2-15.1-19.4-37-23.6-57.1-3.8-16.1 16.8-37.6 32-25.5 32.5 23.8 66.2 46 101.1 66.2 33.9 19.6 72.1 29.3 108.7 42.1 28.3 10.2 54 29.6 67 57.2 5.5 13.1 12.5 26.1 12.3 40.7 4.7 17 5.5 35 1.7 52.3-1.8 7.8-3.6 15.8-3.1 23.9 4 50.3 0.5 100.8 0.2 151.2 0.3 20.2-5.2 40.1-3.3 60.3 2.1 23.9 2.6 48-1.4 71.7-2.1 11.2 0.3 22.7-2.5 33.8-2.9 10.6-1.4 22-5.9 32.3 0.2 1.6 0.8 4.7 1.1 6.3-1.6 2.2-3.2 4.5-4.7 6.8 0.3 1.5 0.7 4.4 1 5.9-10 25.9-18 53.2-35.4 75.4-19.8 24.2-45.2 43.6-73.1 57.6-49.7 25.4-106.6 33.7-161.9 32.4-36.6-1.4-73.5-5.3-108.8-15.6-10.9-3.6-23.4-6.6-29.8-17.1 28.6-9.2 59.3-0.3 87.9-8.5 34.6-9.3 67.8-25.3 94.3-49.6 10.7-9.9 18-22.6 26.2-34.5 10.1-14 14.2-30.9 20.6-46.6 11-35.6 8.5-73.4 14.2-109.8-2-27.9 0.7-55.9 4-83.7-2.1-29.5-2-59.1-0.8-88.7 18.3-5.7 37-12 51.4-25.2-18.5 1-36.7 5.2-55.2 6.3-54.8 4.5-109.6-4.1-163.3-14.7-67.7-14.3-134.4-38.8-190.9-79.6-17.3-13.9-35.9-26.8-48.6-45.4-13.8-14.3-23.8-31.6-32.7-49.2q1.1-4.9 2.2-9.7c19.7 23.8 45.7 41.2 71.4 57.7 20.5 11.8 41.4 24.9 65.3 28-34.2-18.1-67.5-38-97.9-61.9-21.3-17.7-46.9-32.3-59.5-58-14.1-32.3-27.2-65.1-39.2-98.3-3.6-11.9-1.8-24.5-2.7-36.8 5.6-3.5 11.1-7 16.7-10.3 2 0.6 5.8 1.7 7.8 2.3 3.1 18.3 11.6 34.8 18.6 51.7 14.6 27.8 29.4 56.4 52 78.7 33.2 28.2 69.9 52.1 108.7 71.9 17 8.7 34.7 16.8 53.7 20.1-16.8-9.4-35.2-15.4-51.9-25-47.5-26.2-94.7-56.8-126.9-101.4-14-19.7-26.5-40.6-35-63.3-7.4-19.1-15.6-39.2-12.4-60.1z"/>
	</g>
	<g id="#c3e0e8ff">
		<path id="Layer" class="s2" d="m344.1 99.6c94.4-60.6 205.2-95.3 317.3-99.6 0.2 17-0.1 33.9 2.1 50.8 2.9 23.2 0.1 46.6 2.9 69.8 2.9 21.3 0.6 42.9 4.1 64.2 1.6 85.9 7.5 171.7 10.3 257.6 3.7 81.8 8.4 163.6 10.3 245.6q-5.5-2.6-10.9-5.1c0.2-1.5 0.8-4.4 1.1-5.8-2-1.7-3.9-3.3-5.8-4.9-4.9-9.6-10-19.3-17.3-27.4-0.3-1.1-0.9-3.2-1.2-4.3q-2.4-2.8-4.7-5.4c-2.2-3.5-4.5-6.9-6.7-10.3-5.6-9.2-10.4-19-17.8-27-0.2-1.1-0.4-3.4-0.6-4.5-1.8-1.7-3.7-3.3-5.5-4.9-4.9-9.7-9.6-19.8-17.7-27.3-0.1-1-0.3-2.9-0.4-3.8-4.1-5.3-7.9-10.7-11.8-16.2-5.4-9.2-10.1-19-17.7-26.8-0.1-1.1-0.4-3.3-0.5-4.5-1.8-1.7-3.5-3.4-5.1-5.1-7.7-12.5-15.1-25.3-23.4-37.3-2.3-3.3-4.5-6.6-6.8-9.8-5.6-9.4-9.9-19.7-18.3-27.1 0.1-1.2 0.2-3.5 0.3-4.7-2.4-1.4-4.6-3-6.6-4.6 0-1.3-0.1-3.8-0.1-5q-2.9-2.7-5.5-5.3c-4.8-9.6-11-18.4-18-26.6 0-1.3-0.1-3.9-0.1-5.2q-2.7-2.8-5.7-5c-4.6-9.5-10-18.8-16.5-27.1-8.2-10.5-14.7-22-21.5-33.3-14.8-18.9-24.6-41.1-38.7-60.6-7.9-14.4-20.1-26.4-25.9-41.9-1.4-1.4-2.8-2.9-4.1-4.3-9.6-18.1-23.9-33.1-33-51.4-8.1-13.9-15.9-28.1-27.4-39.5 9.2-5 18.2-10.4 26.9-16.4zm-134.2 107c13.5-8.4 21.9-22.9 36.5-29.5 6.7 10.2 14.7 19.5 22.2 29.2 14.6 22 29.9 43.6 47.4 63.4 17 28.2 38.6 53.4 57.5 80.4 24.9 31.9 46.6 66.2 73.1 96.8 12.8 22.7 30.5 42 45 63.5 8.1 12.8 19.6 23.1 27.3 36.2 8.4 14.7 21.7 25.9 29.8 40.8 12.6 17.1 24.2 34.9 38.7 50.5 8.3 15.7 20.5 28.9 30.4 43.7 4.9 7.4 10.9 14.1 17.6 19.9 0 1.3 0.1 3.7 0.1 5q4.2 3.9 8.6 7.9c3.1 6.9 8.6 12.1 13.8 17.4-11.2 2.3-20.9-5-30.8-9-192.5-84.3-385.2-168.4-577.7-252.7-7.1-1.6-9.5-8.8-6.3-14.9 18.9-48 42.2-94.3 70.6-137.5 18.7-24.5 36.3-50.1 58.6-71.6 10.4-15 22.3-29.3 37.6-39.5z"/>
	</g>
	<g id="#c6a78bff">
		<path id="Layer" class="s3" d="m776.9 1.6c121.9 5.1 241.5 45.9 341.6 115.5-39 64.3-80.9 126.7-121 190.3-64.7 100.5-129 201.3-193.8 301.7-19.8 30.2-37.7 61.8-59.3 90.8 1.6-77.1 6.7-154.1 10.4-231.1 8.2-155.7 14-311.5 22.1-467.2zm415.1 176.2c25.8 20 48.7 43.3 71.1 66.8 23.3 22.9 42.2 49.8 61.3 76.1 18.6 28.7 36.5 58 50.1 89.5 8.4 19 18.3 37.6 22.2 58.3-189 82.7-377.9 165.3-566.9 247.9-16.7 6.9-32.7 15.5-50.1 20.6 44.9-63.5 92.3-125.4 137.9-188.5 77.7-104.3 154.3-209.4 231.7-313.9 15.2-18.3 27.2-38.9 42.7-56.8z"/>
	</g>
</svg>